<?xml version="1.0" encoding="UTF-8"?>
<svg id="Layer_2" data-name="Layer 2" xmlns="http://www.w3.org/2000/svg" viewBox="0 0 583.59 525.5">
  <defs>
    <style>
      .cls-1 {
        fill: #44a7e1;
      }

      .cls-1, .cls-2, .cls-3, .cls-4, .cls-5 {
        stroke-width: 0px;
      }

      .cls-2 {
        fill: #f4f6f8;
      }

      .cls-3 {
        fill: #fbfcfc;
      }

      .cls-4 {
        fill: #45a8e2;
      }

      .cls-5 {
        fill: #03265c;
      }
    </style>
  </defs>
  <g id="Layer_1-2" data-name="Layer 1">
    <g>
      <path class="cls-5" d="M199,494.06c-.46-2.33-.51-4.67-.17-7.01.83-3.13,2.78-6.4-1.17-8.89,0,0,.04.04.04.04-.07-2.24-1.32-3.11-3.44-2.96-.29,0-.44-.15-.47-.44-.15-.82-.52-1.4-1.47-1.32,0,0,.09.06.09.06-.05-.69-.41-1.01-1.1-.91,0,0-.06-.04-.06-.04.07-.7-.23-1-.94-.87,0,0-.15-.14-.15-.15.13-.7-.15-.98-.85-.85,0,0-.15-.15-.15-.15.13-.71-.17-1.01-.87-.94,0,0-.04-.05-.04-.05.07-.71-.24-1.03-.95-.95l.17-.22s-.21.18-.21.17c.07-.7-.24-1-.94-.87,0,0-.15-.14-.15-.14.13-.7-.15-.98-.85-.85,0,0-.13-.11-.13-.11.23-1.12-.48-1.41-1.36-1.56,0,0-.01-.01-.01-.01-.12-.89-.46-1.58-1.52-1.54,0,0,.09.05.09.05,0-.69-.33-1.06-1.02-1.1,0,0,.08.07.08.07-.03-.68-.39-1.05-1.06-1.11,0,0,.15.09.15.09-.4-.43-.79-.86-1.19-1.3-.21-.28-.43-.55-.64-.83.05-1.37-.56-2.17-1.98-2.26,0,0,.04.03.04.03-.07-1.22-.5-2.77-1.67-2.66-7.88.74-15.77,1.59-23.26,4.42-.66.06-1.33.11-1.99.17-2.71-1.97-5.87-1.22-8.67-.9-11.24,1.29-22.42,1.32-33.66-.01-2.48-.29-5.32-.98-7.67.92-29.68-2.08-56.9-11.36-81.41-28.27-5.05-3.49-9.79-7.45-14.49-11.41-2.07-1.74-4.79-3.51-3.63-6.98,1.09-3.26,4.1-3.55,6.88-4.06,23.52-4.34,43.49-15.1,59.55-32.91,14.22-15.77,25.66-33.49,36.43-51.7,13.02-22.03,25.43-44.48,42.6-63.74,1.82.07,1.02-1.35,1.02-2.06.06-11.69.04-23.38.04-35.07,0-1.31.13-2.66-.92-3.72.34-35.54,2.04-70.91,13-105.13,1.82-5.69,3.8-11.41,6.49-16.71,1.92-3.78.83-5.18-2.25-7.36-14.59-10.34-24.15-23.85-24.39-42.41-.39-29.92,28.39-50.38,57.16-40.94,12.25,4.02,22.18,11.29,30.41,21,2.23,2.63,3.82,3.42,7.24,1.53,22.8-12.57,47.62-18.56,73.24-21.74,33.93-4.21,67.45-2.29,100.48,6.81,10.13,2.79,20.05,6.2,29.39,11.03,3.11,1.61,4.76,1.24,6.95-1.48,9.03-11.17,20.18-19.5,34.43-22.51,17.71-3.75,33.19.72,44.82,15.02,11.59,14.24,12.09,30.1,5.06,46.53-4.29,10.02-10.96,18.23-19.77,24.63-1.88,1.37-2.79,2.28-1.52,4.74,12.92,25.1,17,52.34,19.09,80.03,1.6,21.11,1.35,42.25.73,63.46,2.39.34,3.3-1.53,4.51-2.71,5.74-5.57,11.35-11.26,17.07-16.85,9.55-9.34,16.53-11.22,24.76-6.76,7.96,4.32,12.18,15.33,10.42,26.16-3.03,18.65-12.95,33.68-24.86,47.62-8.67,10.15-18.19,19.49-29.29,27.02-2.44,1.65-2.31,3.71-2.42,6.02-1.26,26.79-2.83,53.59-9.02,79.78-7.34,31.05-20.54,59.04-44.73,80.82-1.94,1.74-1.88,3.71-2.02,5.84-.54,7.96-.71,15.98-3.51,23.6-3.06,2.33-4.68,5.47-5.18,9.23l-.37-.17s.39.13.39.13c-1.03.03-1.37.7-1.5,1.58,0,0-.03.03-.03.03-.88.14-1.56.49-1.48,1.55,0,0,.03-.08.03-.08-.7-.04-1.07.3-1.15.99l-.12-.27s.17.24.17.24c-1.47-.38-2.21.23-2.33,1.7,0,0,.05-.03.05-.03-4.96.73-9.76,2.71-14.93,1.92-3.52-.54-7.04-1.02-10.56-1.53,0,0,0,.05,0,.05-.11-2.02-1.2-2.56-3.02-2,.04-.12.09-.23.13-.35-.04.12-.07.24-.11.35-.01-1.15-.77-1.41-1.71-1.45,0,0,.04.03.04.03-.74-3.29-2.73-5.33-6.06-6.02,0,0,.04.04.04.04-.05-.94-.28-1.71-1.47-1.61,0,0-.05-.09-.05-.09.77-2.57-.58-3.65-2.86-4.08l.2-.21s-.16.25-.16.25c.29-4.61-2.33-6.07-6.26-5.14-2.8.66-5.64.41-8.38,1-25.89,5.58-52.09,6.22-78.47,5.94-21.01-.22-41.64-2.42-62.1-6.89-1.73-.38-3.79-.99-4.24,1.84,0,0,.05-.05.04-.05-2.56.41-3.06,2.09-2.67,4.32,0,0,.05-.07.05-.07-1.15.08-1.39.85-1.4,1.81,0,0,.04-.05.04-.05-2.56-.01-3.17,1.63-3.18,3.77-.34.37-.68.75-1.01,1.12-.86.15-1.55.46-1.36,1.54,0,0-.08.07-.08.07-1.04-.24-1.37.41-1.56,1.24-.53.43-1.07.86-1.6,1.29-.98.02-1.85.17-1.77,1.47,0,0-.15.08-.15.08-1.85-.71-2.94-.27-2.87,1.9,0,0-.12.04-.12.04-7.41,1.58-14.84,2.87-22.45,1.44-.83-.01-1.53-.3-1.99-1.02-.22-1.45-.96-2.04-2.41-1.48l.34-.36s-.36.33-.36.33c.07-1.13-.68-1.41-1.59-1.51-.97-.37-1.62-1.04-1.96-2.03-2.8-7.47-7.01-14.44-7.92-22.57-.02-.17-.56-.27-.86-.41ZM479.48,76.45c.25.08.5.15.75.23-.09-.24-.18-.48-.27-.72-.34-.59-.67-1.17-1.01-1.76-15.55-18.59-35.22-31.22-57.6-40.01-33.54-13.18-68.38-16.76-103.99-13.7-25.87,2.22-51.03,7.69-74.4,19.51-29.9,15.13-53.27,36.94-66.7,68.11-7.82,18.16-11.29,37.54-13.76,57.07-.83.27-1.52.71-1.61,1.67-.91,9.85-2.33,19.66-2.1,29.59.02,1.02.19,1.97.97,2.72-.01.67-.03,1.34-.04,2.01-3,2.63-2.89,5.29-.1,7.99l-.04,2.01c-2.25.62-1.78,2.5-1.79,4.07-.03,11.87-.03,23.75,0,35.62,0,1.58-.42,3.42,1.72,4.15,1.75,2.82,4.9,2.43,7.49,3.11,24.09,6.39,46.72,16.49,69.22,26.95,1.95.9,3.44,2.35,2.88,4.67-.55,2.29-2.59,2.91-4.66,3.03-1.32.08-2.65-.21-3.98-.3-13.2-.85-26.28-.62-38.93,4.03-18.35,6.74-31.28,19.88-41.85,35.66-5.79,8.64-10.38,17.89-10.37,28.7,0,4.98,1.4,9.46,6.31,11.53,5.1,2.15,10.1,1.57,14.43-2.3,3.38-3.02,6-6.68,8.66-10.3,7.58-10.31,16.78-18.9,27.51-25.86,3.16-2.05,6.26-3.48,9.18.3,3.09,3.99.47,6.35-2.48,8.63-9.96,7.69-18.57,16.63-25.64,27.08-3.26,4.81-6.53,9.82-11.78,12.71-2.48,1.37-2.52,2.81-2.09,5.22,1.16,6.58,3.06,12.96,4.87,19.35,7.14,25.2,20.1,46.66,40.93,62.96,2.45,1.92,2.85,4.17,2.74,6.98-.29,7.82-.64,15.67,1.62,23.31,3.76,12.73,14.55,15.35,23.91,5.85,4.54-4.61,7.47-10.22,9.67-16.17,1.5-4.08,3.66-5.55,7.94-4.12,3.46,1.16,7.08,1.86,10.66,2.62,29.46,6.25,59.15,9.27,89.3,6.75,20.28-1.7,40.33-4.74,60.16-9.23,3.92-.89,6.33-.07,7.36,4.22,1.13,4.7,2.99,9.16,5.95,13.1,4.04,5.4,8.99,9.16,16.11,7.69,6.79-1.4,9.51-6.74,11.01-12.86,1.88-7.66,2.18-15.48,2.13-23.31-.02-2.9.86-5.04,3.27-6.82,12.91-9.51,21.83-22.21,28.97-36.36,7.95-15.76,12.05-32.73,15.93-49.78.84-.25,1.48-.67,1.64-1.63,1-5.85,2.09-11.69,3-17.56.24-1.57.5-3.34-.84-4.72.06-5.4.64-10.76,1.62-16.07.42-.67,1.15-1.31,1.22-2.01.75-7.71,1.82-15.42,1.99-23.14.32-14.41.11-28.83.07-43.24,0-1.7.67-3.81-1.83-4.57-1.93-.06-2.77,1.64-4.07,2.57-12.41,8.82-25.97,14.85-41.13,17.01-1.9.27-4.24.83-4.98-1.88-.65-2.37.32-4.29,2.51-5.41,1.78-.9,3.65-1.61,5.49-2.39,13.11-5.53,25.37-12.45,36.43-21.51,3.66-2.99,5.36-6.36,5.52-11.01.43-12.81,1.53-25.61,1.19-38.44-.27-10.31-.64-20.63-.97-30.94.91-2.76,2.21-5.55-.82-7.9-.24-1.98-.45-3.96-.71-5.94-.26-1.98-.58-3.95-1.07-7.26-6.24,21.49-18.4,36.28-37.75,44.82-19.1,8.43-38.34,8.67-57.79.26,0,3.32.15,6.14-.03,8.94-.6,9.34-4.39,18.01-13.37,20.42-10.13,2.72-11.05,8.24-10.83,16.93.26,10.36-5.95,17.19-15.74,19.73-5.88-2.07-11.95-.7-17.93-.88-3.33-.1-6.86-1.1-10.05.89-9.73-2.14-15.95-9.08-16.86-19.08-.3-3.31-.39-6.67-.17-9.98.23-3.39-.94-4.53-4.38-4.92-10.79-1.19-18.43-8.46-20.72-18.78-.95-4.31-.43-8.58.06-13.58-17.18,9.8-34.96,14.25-54.07,10.15-19.29-4.14-34.5-14.6-45.28-31.16-18.43-28.3-13.95-68.14,10.34-93.58,23.14-24.24,59.69-29.04,89.47-12.23,24.13,13.62,46.47,53.09,27.1,98.28,2.76.25,5.3-.12,7.61-1.69,9.26-6.29,19.26-6.75,29.64-3.58,3.52,1.08,6.91,2.56,10.79,4.02-2.75-6.19-5.85-11.57-6.56-17.82.66-.59,1.03-1.32.75-2.19-2.18-6.72-1.68-13.66-1.77-20.57-.03-2.08.66-4.32-.87-6.2.95-6.77,2.54-13.34,5.52-19.54,18.91-39.29,64.87-52.19,101.6-28.51.13.18.3.27.53.28ZM364.88,256.4c1.97,3.1,4.91,1.46,7.49,1.41.13,0-.71-.69-1.18-.98,8.2-2.61,10.49-6.71,8.18-21.34-1.06-6.72-9.48-4.35-14.49-7.58v28.5ZM450.71,77.95c-2.32-1.86-16.43-2.64-18.63-1.03.14.08.28.18.42.25.15.07.31.11.46.17-5.08,1.47-10.39,2.08-15.27,4.33-34.51,15.9-44.92,57.63-22.11,88.76,16.92,23.1,47.27,30.59,73.59,18.16,23.47-11.08,36.45-39.16,29.39-65.09-6.7-24.63-22.76-39.97-47.85-45.54ZM257,77.35c-21.05,5.15-36.19,17.35-45.1,37.28-11.77,26.34-3.77,57.68,19.15,74.19,23.21,16.72,53.92,14.33,75.55-5.87,32.39-30.26,25.42-82.15-13.54-101.12-5.89-2.87-12.35-3.69-18.53-5.5.06-.15.16-.3.17-.45,0-.14-.1-.4-.16-.4-4.18-.1-8.36-.2-12.54-.25-.44,0-1.65-.08-.42.81.35.26.94.19,1.42.27-1.27,1.03-2.76.89-4.24.77-.56-.26-1.14-.77-1.68-.72-.78.06-.41.61-.08.99ZM193.68,279.68c-9.41-3.12-18.84-5.6-28.4-7.77-7.65-1.73-12.35,1.25-16.75,6.59-13.82,16.8-23.6,36.15-34.77,54.62-13.17,21.77-26.36,43.46-45.82,60.58-11.17,9.82-23.47,17.37-37.3,22.61-1.44.55-3.85.25-4.02,2.27-.13,1.56,2.02,2.03,3.21,2.82,17.75,11.81,37.49,18.22,58.32,22.09,24.95,4.63,49.82,4.25,74.84.9,5.24-.7,4.52-2.19,2.63-5.7-8.09-15.05-13.31-31.17-16.6-47.86-.69-3.48-2.03-5-5.1-5.53-3.57-.61-6.59-2.16-9.15-4.73-7.12-7.11-9.4-15.66-8.08-25.49,3.86-28.79,19.41-49.9,42.9-65.92,7.32-4.99,15.73-6.93,24.09-9.49ZM333.34,183.84c-7.97,4.19-14.23,9.25-17.02,17.39-2.04,5.93-1.63,12.01,2.7,16.96,4.11,4.71,9.64,5.56,15.55,4.24,5.19-1.16,10.45-2.12,15.52-3.69,6.98-2.17,13.7-1.92,20.54.48,4.23,1.49,8.56,2.75,12.94,3.71,9.98,2.18,18.94-3.6,20.18-12.78,1.41-10.41-6.97-22.18-17.79-24.62.02,8.85-5.74,12.86-13.09,15.53-7.23,2.64-14.71,2.94-22.17,1.76-11.75-1.86-16-6.53-17.36-18.98ZM187.57,19.18c-20.98-.08-32.1,9.31-34.03,25.05-1.79,14.58,5.81,24.64,16.68,33.03,3.49,2.7,5.97,3.45,8.52-1.15,1.67-3.02,4.19-5.59,6.49-8.22,1.58-1.8,1.48-2.85-.59-4.26-4.42-3.02-8.44-6.55-11.07-11.34-1.88-3.43-2.36-7.05.18-10.35,2.46-3.2,6-4.09,9.86-3.46,3.33.54,6.15,2.32,9.12,3.86,3.91,2.03,5.72,8.4,10.28,7.26,3.98-1,7.16-5.19,10.7-7.96.39-.31.78-.63,1.21-.88,1.46-.86,1.72-1.78.52-3.17-8.75-10.09-18.54-18.28-27.88-18.4ZM517.81,46.12c.23-17.69-9.75-29.36-24.61-31.14-16.07-1.93-27.6,6.37-37.82,17.37-1.5,1.61-.59,2.58.86,3.54,2.78,1.83,5.85,3.39,8.17,5.69,3.77,3.73,6.42,3.36,10.19-.31,4.69-4.55,10.35-8,17.52-6.36,7.14,1.63,9.55,7.4,5.76,13.66-2.53,4.18-5.93,7.59-9.69,10.65-1.47,1.2-2.31,2.12-.71,4,3.13,3.66,6.08,7.49,8.98,11.34,1.27,1.69,2.26,1.94,4,.52,10.07-8.25,17.04-18.15,17.33-28.95ZM526.21,295.55c1.56,0,1.98.13,2.17-.02,17.21-14.1,31.83-30.29,40.26-51.24,2.29-5.7,4.02-11.73,2.3-18.01-1.94-7.1-6.73-8.74-12.01-3.84-10.61,9.85-20.58,20.35-30.27,31.12-1.39,1.54-2.42,3.29-2.43,5.34-.06,12.23-.03,24.46-.03,36.65ZM357.9,227.95c-1.94.52-3.36.88-4.77,1.27q-12.6,3.49-12.25,16.59c.22,8.33,8.18,13.63,15.85,10.64,1.32-.51,1.17-1.41,1.17-2.36.01-8.6,0-17.2,0-26.15ZM356.49,257.89c0-.14,0-.28,0-.43h-6.5c0,.14,0,.28,0,.43h6.5Z"/>
      <path class="cls-5" d="M255.85,503.19c.45-2.83,2.51-2.22,4.24-1.84,20.46,4.46,41.09,6.67,62.1,6.89,26.38.28,52.58-.37,78.47-5.94,2.74-.59,5.58-.34,8.38-1,3.94-.93,6.56.53,6.26,5.14-1.82-3.88-4.49-4.43-8.71-3.54-28.65,6.04-57.7,7.71-86.91,7.33-4.62-.24-9.24-.49-13.86-.73-15.78-1.23-31.44-3.29-46.83-7.07-1.34-.33-2.22,0-3.15.77Z"/>
      <path class="cls-5" d="M99.81,459.1c2.35-1.91,5.19-1.22,7.67-.92,11.24,1.33,22.42,1.31,33.66.01,2.81-.32,5.96-1.07,8.67.9-4.36,1.2-8.87.73-13.29,1.27-7.47.03-14.95.05-22.43.08-4.74-.6-9.6.01-14.27-1.33Z"/>
      <path class="cls-5" d="M430.34,521.52c3.52.51,7.04,1,10.56,1.53,5.16.79,9.96-1.2,14.93-1.92-8.41,5.65-16.92,5.15-25.49.39Z"/>
      <path class="cls-5" d="M151.8,458.92c7.49-2.83,15.38-3.68,23.26-4.42,1.17-.11,1.6,1.45,1.67,2.66-1.71-2.03-3.84-1.26-5.91-.87-6.3,1.17-12.59,2.44-19.03,2.63Z"/>
      <path class="cls-5" d="M199,494.06c.3.13.85.24.86.41.9,8.14,5.12,15.11,7.92,22.57-5.95-6.51-8.36-14.36-8.78-22.98Z"/>
      <path class="cls-5" d="M145.88,219.17c1.05,1.05.92,2.41.92,3.72,0,11.69.02,23.38-.04,35.07,0,.71.8,2.13-1.02,2.06.05-13.62.1-27.23.15-40.85Z"/>
      <path class="cls-5" d="M215.76,523.11c7.6,1.43,15.03.13,22.45-1.44-7.24,4.19-14.68,5.34-22.45,1.44Z"/>
      <path class="cls-5" d="M197.66,478.15c3.96,2.49,2,5.77,1.17,8.89-.82-2.91.5-6.1-1.17-8.89Z"/>
      <path class="cls-5" d="M462.16,515.45c.5-3.76,2.12-6.9,5.18-9.23-1.16,3.39-2.42,6.73-5.18,9.23Z"/>
      <path class="cls-5" d="M419.59,512.14c3.33.69,5.32,2.73,6.06,6.02-2.57-1.45-4.54-3.51-6.06-6.02Z"/>
      <path class="cls-5" d="M253.23,507.46c-.4-2.23.11-3.91,2.67-4.32-.55,1.65-1.41,3.11-2.67,4.32Z"/>
      <path class="cls-5" d="M248.73,512.92c.02-2.14.63-3.78,3.18-3.77-.73,1.54-1.77,2.81-3.18,3.77Z"/>
      <path class="cls-5" d="M415.26,506.4c2.28.43,3.63,1.52,2.86,4.08-1.21-1.18-2.3-2.45-2.86-4.08Z"/>
      <path class="cls-5" d="M194.25,475.23c2.12-.15,3.37.71,3.44,2.96-1.43-.66-2.56-1.66-3.44-2.96Z"/>
      <path class="cls-5" d="M427.31,519.57c1.82-.56,2.91-.02,3.02,2-1.01-.67-2.01-1.33-3.02-2Z"/>
      <path class="cls-5" d="M238.32,521.63c-.06-2.18,1.03-2.61,2.87-1.9-.96.63-1.91,1.27-2.87,1.9Z"/>
      <path class="cls-5" d="M455.77,521.16c.12-1.47.86-2.08,2.33-1.7-.59.82-1.27,1.52-2.33,1.7Z"/>
      <path class="cls-5" d="M176.7,457.13c1.42.08,2.02.89,1.98,2.26-.66-.75-1.32-1.5-1.98-2.26Z"/>
      <path class="cls-5" d="M211.36,520.61c1.45-.56,2.19.03,2.41,1.48-.8-.49-1.61-.98-2.41-1.48Z"/>
      <path class="cls-5" d="M183.81,465.06c.88.15,1.59.44,1.36,1.56-.45-.52-.91-1.04-1.36-1.56Z"/>
      <path class="cls-5" d="M460.68,517c.13-.88.47-1.56,1.5-1.58-.5.53-1,1.05-1.5,1.58Z"/>
      <path class="cls-5" d="M192.32,473.48c.95-.08,1.32.49,1.47,1.32-.49-.44-.98-.88-1.47-1.32Z"/>
      <path class="cls-5" d="M251.87,509.2c0-.96.25-1.73,1.4-1.81-.47.6-.93,1.21-1.4,1.81Z"/>
      <path class="cls-5" d="M418.16,510.57c1.19-.1,1.42.67,1.47,1.61-.49-.54-.98-1.07-1.47-1.61Z"/>
      <path class="cls-5" d="M246.36,515.57c-.19-1.08.5-1.38,1.36-1.54-.45.51-.91,1.02-1.36,1.54Z"/>
      <path class="cls-5" d="M244.72,516.89c.19-.83.52-1.48,1.56-1.24-.52.41-1.04.83-1.56,1.24Z"/>
      <path class="cls-5" d="M182.27,463.5c1.07-.04,1.4.65,1.52,1.54-.51-.51-1.02-1.03-1.52-1.54Z"/>
      <path class="cls-5" d="M459.17,518.58c-.08-1.07.6-1.41,1.48-1.55-.49.52-.99,1.03-1.48,1.55Z"/>
      <path class="cls-5" d="M241.35,519.64c-.07-1.29.79-1.45,1.77-1.47-.59.49-1.18.98-1.77,1.47Z"/>
      <path class="cls-5" d="M425.61,518.12c.94.04,1.7.3,1.71,1.45-.57-.48-1.14-.97-1.71-1.45Z"/>
      <path class="cls-5" d="M209.74,519.07c.91.1,1.66.38,1.59,1.51-.53-.5-1.06-1.01-1.59-1.51Z"/>
      <path class="cls-5" d="M191.3,472.63c.7-.1,1.05.22,1.1.91-.37-.3-.74-.61-1.1-.91Z"/>
      <path class="cls-5" d="M188.28,469.64c.7-.07,1.01.23.87.94-.29-.31-.58-.62-.87-.94Z"/>
      <path class="cls-5" d="M186.3,467.73c.71-.14,1.01.16.94.87-.31-.29-.63-.58-.94-.87Z"/>
      <path class="cls-5" d="M187.29,468.64c.71-.08,1.03.24.95.95-.32-.32-.64-.63-.95-.95Z"/>
      <path class="cls-5" d="M185.3,466.73c.7-.13.98.15.85.85-.28-.28-.57-.57-.85-.85Z"/>
      <path class="cls-5" d="M189.3,470.72c.7-.13.98.16.85.85-.28-.28-.57-.57-.85-.85Z"/>
      <path class="cls-5" d="M179.32,460.21c.4.43.79.86,1.19,1.3-.4-.43-.79-.86-1.19-1.3Z"/>
      <path class="cls-5" d="M181.34,462.46c.69.04,1.03.4,1.02,1.1-.34-.36-.68-.73-1.02-1.1Z"/>
      <path class="cls-5" d="M180.36,461.42c.67.06,1.03.43,1.06,1.11-.35-.37-.71-.74-1.06-1.11Z"/>
      <path class="cls-5" d="M190.31,471.72c.7-.14,1,.17.94.87-.31-.29-.63-.58-.94-.87Z"/>
      <path class="cls-5" d="M458.05,519.49c.08-.68.45-1.02,1.15-.99-.38.33-.76.66-1.15.99Z"/>
      <path class="cls-4" d="M511.39,342.07c-.98,5.31-1.56,10.67-1.62,16.07-1.27,7.97-2.53,15.94-3.8,23.91-3.87,17.05-7.98,34.02-15.93,49.78-7.13,14.15-16.06,26.85-28.97,36.36-2.41,1.77-3.29,3.92-3.27,6.82.04,7.83-.26,15.66-2.13,23.31-1.5,6.12-4.22,11.47-11.01,12.86-7.12,1.46-12.06-2.29-16.11-7.69-2.95-3.94-4.82-8.4-5.95-13.1-1.03-4.29-3.44-5.11-7.36-4.22-19.83,4.49-39.88,7.53-60.16,9.23-30.16,2.53-59.84-.49-89.3-6.75-3.58-.76-7.2-1.47-10.66-2.62-4.28-1.43-6.44.04-7.94,4.12-2.19,5.95-5.13,11.57-9.67,16.17-9.36,9.5-20.15,6.88-23.91-5.85-2.26-7.64-1.91-15.49-1.62-23.31.1-2.81-.29-5.07-2.74-6.98-20.83-16.29-33.79-37.76-40.93-62.96-1.81-6.4-3.71-12.78-4.87-19.35-.43-2.41-.39-3.85,2.09-5.22,5.25-2.89,8.52-7.9,11.78-12.71,7.08-10.45,15.68-19.4,25.64-27.08,2.95-2.27,5.57-4.64,2.48-8.63-2.93-3.78-6.02-2.35-9.18-.3-10.73,6.96-19.93,15.55-27.51,25.86-2.66,3.62-5.29,7.27-8.66,10.3-4.33,3.87-9.33,4.46-14.43,2.3-4.9-2.07-6.3-6.55-6.31-11.53-.02-10.81,4.58-20.06,10.37-28.7,10.57-15.78,23.5-28.92,41.85-35.66,12.65-4.65,25.73-4.88,38.93-4.03,1.33.09,2.66.38,3.98.3,2.07-.12,4.11-.75,4.66-3.03.56-2.32-.93-3.77-2.88-4.67-22.5-10.46-45.13-20.56-69.22-26.95-2.59-.69-5.75-.29-7.49-3.11.02-14.61.04-29.22.06-43.83.01-.67.03-1.34.04-2.01.03-2.66.06-5.33.1-7.99.01-.67.03-1.34.04-2.01.91-11.32,1.82-22.65,2.74-33.97,2.46-19.54,5.93-38.92,13.76-57.07,13.43-31.17,36.8-52.98,66.7-68.11,23.36-11.82,48.53-17.29,74.4-19.51,35.62-3.06,70.45.52,103.99,13.7,22.38,8.79,42.05,21.42,57.6,40.01,0,.66,0,1.31,0,1.97-36.73-23.69-82.69-10.79-101.6,28.51-2.98,6.2-4.57,12.78-5.52,19.54-1.29,5.99-1.07,12.02-.59,18.07-.27.33-.23.61.12.84.4,3.44.99,6.84,2.36,10.06.7,6.25,3.81,11.64,6.56,17.82-3.88-1.46-7.28-2.94-10.79-4.02-10.37-3.18-20.38-2.71-29.64,3.58-2.31,1.57-4.85,1.93-7.61,1.69,19.38-45.19-2.96-84.65-27.1-98.28-29.78-16.81-66.33-12.01-89.47,12.23-24.29,25.44-28.77,65.28-10.34,93.58,10.78,16.56,25.98,27.02,45.28,31.16,19.11,4.1,36.89-.35,54.07-10.15-.5,5.01-1.02,9.27-.06,13.58,2.28,10.33,9.93,17.59,20.72,18.78,3.44.38,4.61,1.53,4.38,4.92-.23,3.31-.13,6.67.17,9.98.91,10,7.13,16.94,16.86,19.08,9.33,1.26,18.65,1.42,27.98-.02,9.78-2.54,15.99-9.36,15.74-19.73-.21-8.68.7-14.21,10.83-16.93,8.98-2.41,12.77-11.07,13.37-20.42.18-2.8.03-5.61.03-8.94,19.45,8.41,38.69,8.17,57.79-.26,19.35-8.54,31.51-23.33,37.75-44.82.49,3.3.8,5.28,1.07,7.26.26,1.98.48,3.96.71,5.94.16,1.05.31,2.09.47,3.14-.05.11-.17.24-.15.33.06.23.18.45.27.67.08,1.25.15,2.5.23,3.76.33,10.31.7,20.63.97,30.94.34,12.84-.76,25.63-1.19,38.44-.16,4.65-1.86,8.01-5.52,11.01-11.07,9.05-23.32,15.98-36.43,21.51-1.84.78-3.71,1.49-5.49,2.39-2.2,1.11-3.16,3.03-2.51,5.41.74,2.71,3.09,2.15,4.98,1.88,15.15-2.15,28.72-8.19,41.13-17.01,1.3-.93,2.14-2.63,4.07-2.57.06.68.13,1.35.19,2.03-.13.33-.11.66.05.97.06,1.65.11,3.29.17,4.94.36,11.19,1.16,22.4-.48,33.56,0,.91,0,1.82,0,2.73-.13,4.85-.27,9.7-.4,14.55l-.26,2.27-.7,11.9ZM353.77,296.72c-.77-.43-1.51-.38-2.23.12-.54.02-1.08.03-1.62.05-.46-.44-.91-.42-1.34.03-1.92.12-3.85.24-5.77.35-4.53-.48-8.98.44-13.42,1-12.27,1.54-24.33,3.98-35.2,10.34-6.35,3.71-9.7,8.73-9.56,16.67.45,24.14.59,48.3.13,72.43-.19,9.86,4.21,16.03,11.97,20.76,4,2.43,8.26,4.27,12.75,5.64,23.39,7.14,47.21,7.49,71.21,4.38,12.12-1.57,23.87-4.45,34.47-10.97,6.96-4.29,10.39-10.07,10.25-18.55-.39-24.31-.73-48.63-.15-72.92.22-9.1-3.36-14.5-10.77-18.33-14.05-7.25-29.2-9.86-44.81-10.44-5.3-.18-10.6-.36-15.9-.55Z"/>
      <path class="cls-3" d="M258.76,77.09c1.48.12,2.97.26,4.24-.77,3.84,0,7.69.01,11.53.02,6.18,1.82,12.63,2.64,18.53,5.5,38.96,18.97,45.93,70.86,13.54,101.12-21.63,20.2-52.33,22.59-75.55,5.87-22.92-16.51-30.93-47.85-19.15-74.19,8.91-19.93,24.05-32.13,45.1-37.28.59-.09,1.17-.18,1.76-.26ZM296.93,139.97c.1-13.6-10.6-24.5-24.14-24.58-12.85-.07-23.93,10.81-24.11,23.67-.19,13.65,10.9,25.1,24.3,25.1,13.26,0,23.84-10.69,23.94-24.19Z"/>
      <path class="cls-5" d="M193.68,279.68c-8.36,2.56-16.78,4.5-24.09,9.49-23.5,16.02-39.04,37.12-42.9,65.92-1.32,9.83.96,18.38,8.08,25.49,2.56,2.56,5.58,4.11,9.15,4.73,3.08.53,4.42,2.06,5.1,5.53,3.29,16.69,8.51,32.81,16.6,47.86,1.89,3.51,2.61,5-2.63,5.7-25.02,3.34-49.9,3.73-74.84-.9-20.83-3.87-40.57-10.29-58.32-22.09-1.19-.79-3.33-1.26-3.21-2.82.17-2.02,2.58-1.72,4.02-2.27,13.83-5.25,26.13-12.79,37.3-22.61,19.46-17.11,32.66-38.81,45.82-60.58,11.17-18.48,20.95-37.83,34.77-54.62,4.4-5.34,9.11-8.32,16.75-6.59,9.56,2.17,18.99,4.65,28.4,7.77Z"/>
      <path class="cls-3" d="M450.71,77.95c25.09,5.58,41.15,20.92,47.85,45.54,7.05,25.94-5.92,54.01-29.39,65.09-26.32,12.43-56.66,4.95-73.59-18.16-22.81-31.14-12.4-72.86,22.11-88.76,4.88-2.25,10.19-2.86,15.27-4.33,4.81,0,9.62,0,14.43,0,.4.08.81.17,1.21.25.7.12,1.4.24,2.1.37ZM409.86,138.23c-.15,13.33,10.94,24.7,24.21,24.82,12.93.12,24.32-11.23,24.32-24.2,0-13.17-10.92-24.24-24.08-24.42-13.27-.19-24.3,10.56-24.45,23.8Z"/>
      <path class="cls-1" d="M333.34,183.84c1.36,12.45,5.6,17.12,17.36,18.98,7.46,1.18,14.93.88,22.17-1.76,7.35-2.68,13.12-6.69,13.09-15.53,10.82,2.45,19.2,14.21,17.79,24.62-1.24,9.19-10.2,14.97-20.18,12.78-4.38-.96-8.71-2.22-12.94-3.71-6.84-2.4-13.56-2.65-20.54-.48-5.07,1.57-10.33,2.54-15.52,3.69-5.91,1.32-11.43.47-15.55-4.24-4.33-4.96-4.74-11.03-2.7-16.96,2.8-8.14,9.06-13.2,17.02-17.39Z"/>
      <path class="cls-1" d="M187.57,19.18c9.34.11,19.13,8.31,27.88,18.4,1.2,1.38.94,2.31-.52,3.17-.43.25-.82.58-1.21.88-3.54,2.78-6.72,6.96-10.7,7.96-4.55,1.15-6.37-5.23-10.28-7.26-2.97-1.54-5.79-3.32-9.12-3.86-3.86-.63-7.4.27-9.86,3.46-2.54,3.3-2.06,6.92-.18,10.35,2.62,4.79,6.64,8.33,11.07,11.34,2.06,1.41,2.16,2.46.59,4.26-2.3,2.63-4.82,5.2-6.49,8.22-2.55,4.61-5.03,3.85-8.52,1.15-10.87-8.39-18.47-18.45-16.68-33.03,1.93-15.74,13.05-25.12,34.03-25.05Z"/>
      <path class="cls-1" d="M517.81,46.12c-.3,10.81-7.27,20.7-17.33,28.95-1.74,1.43-2.73,1.17-4-.52-2.9-3.85-5.85-7.67-8.98-11.34-1.6-1.87-.76-2.8.71-4,3.76-3.06,7.16-6.47,9.69-10.65,3.79-6.26,1.37-12.03-5.76-13.66-7.17-1.64-12.84,1.81-17.52,6.36-3.78,3.67-6.42,4.05-10.19.31-2.32-2.3-5.39-3.86-8.17-5.69-1.45-.95-2.36-1.93-.86-3.54,10.21-11,21.74-19.31,37.82-17.37,14.86,1.79,24.84,13.45,24.61,31.14Z"/>
      <path class="cls-1" d="M526.21,295.55c0-12.19-.03-24.42.03-36.65.01-2.05,1.04-3.8,2.43-5.34,9.69-10.76,19.66-21.26,30.27-31.12,5.28-4.9,10.07-3.26,12.01,3.84,1.72,6.28,0,12.31-2.3,18.01-8.43,20.95-23.05,37.14-40.26,51.24-.19.15-.61.02-2.17.02Z"/>
      <path class="cls-3" d="M357.9,227.95c0,8.96,0,17.55,0,26.15,0,.95.15,1.84-1.17,2.36-7.67,2.99-15.63-2.31-15.85-10.64q-.35-13.1,12.25-16.59c1.41-.39,2.83-.76,4.77-1.27Z"/>
      <path class="cls-2" d="M364.88,256.4v-28.5c5.02,3.23,13.43.87,14.49,7.58,2.31,14.63.02,18.73-8.18,21.34-2.1-.14-4.21-.29-6.31-.43Z"/>
      <path class="cls-5" d="M512.76,310.61c1.63-11.17.84-22.37.48-33.56-.05-1.65-.11-3.29-.17-4.94.08-.1.24-.22.22-.3-.05-.23-.18-.45-.27-.67-.06-.68-.13-1.35-.19-2.03,2.5.76,1.83,2.87,1.83,4.57.04,14.41.24,28.83-.07,43.24-.17,7.73-1.23,15.43-1.99,23.14-.07.7-.8,1.34-1.22,2.01.23-3.97.47-7.94.7-11.9.55-.7.6-1.46.26-2.27.13-4.85.27-9.7.4-14.55,0-.91,0-1.82,0-2.73Z"/>
      <path class="cls-5" d="M159.6,211.16c-.02,14.61-.04,29.22-.06,43.83-2.15-.73-1.72-2.57-1.72-4.15-.03-11.87-.03-23.75,0-35.62,0-1.57-.46-3.44,1.79-4.07Z"/>
      <path class="cls-5" d="M374.72,267.11c-9.32,1.43-18.65,1.28-27.98.02,3.19-1.99,6.72-.99,10.05-.89,5.97.17,12.05-1.19,17.93.88Z"/>
      <path class="cls-5" d="M162.51,165.18c-.91,11.32-1.82,22.65-2.74,33.97-.78-.74-.95-1.7-.97-2.72-.24-9.93,1.18-19.74,2.1-29.59.09-.95.78-1.4,1.61-1.67Z"/>
      <path class="cls-5" d="M373.72,153.18c-1.37-3.22-1.96-6.61-2.36-10.06.09-.3.04-.58-.12-.84-.48-6.04-.7-12.08.59-18.07,1.54,1.89.84,4.12.87,6.2.1,6.9-.41,13.84,1.77,20.57.28.87-.09,1.6-.75,2.19Z"/>
      <path class="cls-5" d="M505.97,382.05c1.27-7.97,2.53-15.94,3.8-23.91,1.34,1.38,1.08,3.15.84,4.72-.9,5.87-1.99,11.71-3,17.56-.16.96-.8,1.38-1.64,1.63Z"/>
      <path class="cls-5" d="M450.71,77.95c-.7-.12-1.4-.24-2.1-.37-.4-.08-.81-.17-1.21-.25-4.81,0-9.62,0-14.43,0-.15-.06-.31-.1-.46-.17-.15-.07-.28-.16-.42-.25,2.2-1.61,16.31-.83,18.63,1.03Z"/>
      <path class="cls-5" d="M274.53,76.33c-3.84,0-7.69-.01-11.53-.02-.48-.08-1.06-.02-1.42-.27-1.23-.89-.02-.82.42-.81,4.18.05,8.36.15,12.54.25.06,0,.16.26.16.4,0,.15-.11.3-.17.45Z"/>
      <path class="cls-5" d="M159.73,201.16c-.03,2.66-.06,5.33-.1,7.99-2.8-2.7-2.9-5.36.1-7.99Z"/>
      <path class="cls-5" d="M512.48,172.35c-.16-1.05-.31-2.09-.47-3.14,3.03,2.35,1.74,5.14.82,7.9-.08-1.25-.15-2.5-.23-3.76-.04-.33-.08-.67-.12-1Z"/>
      <path class="cls-5" d="M356.49,257.89h-6.5c0-.14,0-.28,0-.43h6.5c0,.14,0,.28,0,.43Z"/>
      <path class="cls-5" d="M364.88,256.4c2.1.14,4.21.29,6.31.43.47.29,1.31.98,1.18.98-2.57.05-5.52,1.69-7.49-1.41Z"/>
      <path class="cls-5" d="M258.76,77.09c-.59.09-1.17.18-1.76.26-.32-.37-.69-.92.08-.99.54-.04,1.12.46,1.68.72Z"/>
      <path class="cls-5" d="M478.96,76.16c0-.66,0-1.31,0-1.97.34.59.67,1.17,1.01,1.76-.16.16-.32.33-.48.5-.22-.01-.39-.11-.52-.28Z"/>
      <path class="cls-5" d="M479.96,75.95c.09.24.18.48.27.72-.25-.08-.5-.15-.75-.23.16-.17.32-.33.48-.49Z"/>
      <path class="cls-5" d="M369.67,297.27c15.61.58,30.76,3.19,44.81,10.44,7.41,3.83,10.99,9.23,10.77,18.33-.58,24.29-.24,48.62.15,72.92.14,8.48-3.29,14.27-10.25,18.55-10.59,6.52-22.35,9.4-34.47,10.97-24,3.11-47.82,2.76-71.21-4.38-4.49-1.37-8.75-3.21-12.75-5.64-7.76-4.72-12.16-10.89-11.97-20.76.46-24.14.32-48.29-.13-72.43-.15-7.94,3.21-12.96,9.56-16.67,10.87-6.35,22.93-8.8,35.2-10.34,4.44-.56,8.89-1.48,13.42-1,8.96,1.39,17.91,1.4,26.87,0ZM296.38,331.08c-2.34,3.38-2.35,22.64-.02,25.92,1.05,2.82,3.2,4.6,5.7,6.05,4.63,2.7,9.55,4.68,14.73,6.06,19.26,5.12,38.8,5.83,58.46,3.38,13.59-1.69,26.98-4.27,38.21-13.03,1.51-1.42,1.25-3.28,1.25-5.07.01-6.07.05-12.14-.01-18.2-.02-1.73.57-3.66-1.1-5.06-3.05,1.28-6.05,2.71-9.17,3.8-21.99,7.71-44.72,8.41-67.61,6.65-13.5-1.04-26.75-3.57-38.91-10.05l-1.54-.47ZM296.43,374.06c-1.31.46-1.67,1.47-1.67,2.75.01,7.5,0,14.99,0,22.49,0,1.24.19,2.35,1.64,2.69,3.53,7.4,10.84,9.08,17.61,10.9,20.65,5.56,41.73,6.56,62.89,3.89,10.38-1.31,20.8-3.01,30.23-8.06,3.23-1.73,6.54-3.66,6.57-8.04.05-7.99-.04-15.98.02-23.97.02-2.41-.71-3.04-2.88-1.76-3.17,1.87-6.57,3.19-10.08,4.31-21.19,6.73-42.93,6.86-64.77,5.35-13.21-.91-26-3.73-37.89-9.86-.56-.23-1.12-.45-1.68-.68Z"/>
      <path class="cls-5" d="M369.67,297.27c-8.96,1.41-17.91,1.39-26.87,0,1.92-.12,3.85-.24,5.77-.35.45-.01.9-.02,1.34-.03.54-.02,1.08-.03,1.62-.05.74-.04,1.49-.08,2.23-.12,5.3.18,10.6.36,15.9.55Z"/>
      <path class="cls-1" d="M512.76,310.61c0,.91,0,1.82,0,2.73,0-.91,0-1.82,0-2.73Z"/>
      <path class="cls-5" d="M512.35,327.9c.34.81.29,1.57-.26,2.27.09-.76.18-1.51.26-2.27Z"/>
      <path class="cls-5" d="M353.77,296.72c-.74.04-1.49.08-2.23.12.72-.5,1.46-.55,2.23-.12Z"/>
      <path class="cls-5" d="M349.92,296.89c-.45.01-.9.02-1.34.03.44-.45.88-.47,1.34-.03Z"/>
      <path class="cls-5" d="M513.03,271.14c.1.22.22.44.27.67.02.08-.14.2-.22.3-.16-.32-.18-.64-.05-.97Z"/>
      <path class="cls-5" d="M512.48,172.35c.04.33.08.67.12,1-.09-.22-.21-.44-.27-.67-.02-.09.09-.22.15-.33Z"/>
      <path class="cls-1" d="M371.24,142.28c.17.26.21.54.12.84-.36-.24-.4-.52-.12-.84Z"/>
      <path class="cls-5" d="M296.93,139.97c-.1,13.49-10.68,24.18-23.94,24.19-13.4,0-24.49-11.44-24.3-25.1.17-12.86,11.26-23.74,24.11-23.67,13.54.08,24.24,10.97,24.14,24.58ZM284.94,135.8c-.28-3.27-1.78-5.4-5.16-5.54-3.63-.14-5.58,2.01-5.69,5.4-.11,3.22,1.79,5.29,5.1,5.45,3.61.17,5.32-1.98,5.76-5.31Z"/>
      <path class="cls-5" d="M409.86,138.23c.15-13.25,11.18-23.99,24.45-23.8,13.16.19,24.07,11.26,24.08,24.42,0,12.97-11.39,24.32-24.32,24.2-13.27-.12-24.35-11.49-24.21-24.82ZM445.91,134.47c-.1-3.4-1.85-5.38-5.23-5.39-3.61-.02-5.64,2.12-5.55,5.65.08,3.33,2.22,5.25,5.53,5.16,3.29-.09,5.17-1.99,5.25-5.42Z"/>
      <path class="cls-5" d="M447.4,77.33c.4.08.81.17,1.21.25-.4-.08-.81-.17-1.21-.25Z"/>
      <path class="cls-1" d="M298.11,374.74c11.88,6.14,24.67,8.95,37.88,9.87,21.85,1.51,43.59,1.38,64.77-5.35,3.5-1.11,6.91-2.44,10.08-4.31,2.17-1.28,2.9-.65,2.88,1.76-.06,7.99.03,15.98-.02,23.97-.02,4.39-3.34,6.31-6.57,8.04-9.42,5.06-19.84,6.75-30.23,8.06-21.17,2.67-42.24,1.66-62.89-3.89-6.77-1.82-14.09-3.5-17.61-10.9,0,0,.34.1.34.1,1.51-1.5.98-3.41.99-5.17.05-7.27.02-14.54.02-21.81.12-.12.24-.24.36-.37Z"/>
      <path class="cls-1" d="M297.92,331.54c12.16,6.48,25.41,9.01,38.91,10.05,22.89,1.76,45.62,1.06,67.61-6.65,3.12-1.09,6.11-2.53,9.17-3.8-.05,9.45-.09,18.89-.14,28.34-11.23,8.76-24.62,11.34-38.21,13.03-19.66,2.44-39.2,1.74-58.46-3.38-5.18-1.38-10.1-3.37-14.73-6.06-2.5-1.45-4.65-3.23-5.7-6.05l.36.1c1.56-1.48.99-3.41,1.02-5.17.11-6.79.13-13.59.19-20.38Z"/>
      <path class="cls-5" d="M296.4,401.99c-1.45-.35-1.64-1.45-1.64-2.69,0-7.5.01-14.99,0-22.49,0-1.28.36-2.29,1.67-2.75.07.35.14.7.2,1.04.04,9,.07,17.99.11,26.99l-.34-.1Z"/>
      <path class="cls-5" d="M296.36,357c-2.34-3.28-2.33-22.54.02-25.92.11,8.67.23,17.35.34,26.02l-.36-.1Z"/>
      <path class="cls-5" d="M413.46,359.47c.05-9.45.09-18.89.14-28.34,1.67,1.4,1.08,3.33,1.1,5.06.06,6.07.03,12.14.01,18.2,0,1.79.25,3.65-1.25,5.07Z"/>
      <path class="cls-4" d="M296.72,357.09c-.11-8.67-.23-17.35-.34-26.02.51.16,1.03.31,1.54.47-.06,6.79-.08,13.59-.19,20.38-.03,1.76.54,3.69-1.02,5.17Z"/>
      <path class="cls-1" d="M296.63,375.1c-.07-.35-.14-.7-.2-1.04.56.23,1.12.45,1.68.68-.12.12-.24.24-.36.37-.37,0-.74,0-1.11,0Z"/>
      <path class="cls-2" d="M284.94,135.8c-.43,3.33-2.15,5.49-5.76,5.31-3.31-.16-5.21-2.23-5.1-5.45.12-3.39,2.07-5.54,5.69-5.4,3.38.13,4.88,2.27,5.16,5.54Z"/>
      <path class="cls-2" d="M445.91,134.47c-.09,3.43-1.96,5.34-5.25,5.42-3.31.09-5.45-1.83-5.53-5.16-.08-3.53,1.95-5.67,5.55-5.65,3.38.02,5.13,2,5.23,5.39Z"/>
      <path class="cls-4" d="M296.63,375.1c.37,0,.74,0,1.11,0,0,7.27.03,14.54-.02,21.81-.01,1.76.52,3.68-.99,5.17-.04-9-.07-17.99-.11-26.99Z"/>
    </g>
  </g>
</svg>